<svg width="157" height="60" viewBox="0 0 157 60" fill="none" xmlns="http://www.w3.org/2000/svg">
<g clip-path="url(#clip0)">
<path d="M83.7 24.5H82.6L77.6 13C77.4 12.5 76.9 12.1 75.9 12.1C75.2 12.1 74.5 12.4 74.2 13L69.2 24.5L68.6 25.8C68.4 26.1 68.4 26.5 68.5 26.8C68.7 27.2 69.3 27.2 69.3 27.2H83.7C84.4 27.2 85 26.5 85 25.8C85.1 25.2 84.4 24.5 83.7 24.5ZM72.2 24.5L75.9 16.1L79.6 24.5H72.2Z" fill="#069E2D"/>
<path d="M92.7 11.6C88.2 11.5 84.6 15.1 84.5 19.6C84.4 24.1 88 27.7 92.5 27.8C97 27.9 100.6 24.3 100.7 19.8V19.7C100.8 15.3 97.2 11.7 92.8 11.6H92.7ZM92.7 24.8C89.8 24.8 87.5 22.5 87.5 19.6C87.5 16.8 89.8 14.4 92.6 14.4H92.7C95.6 14.4 97.9 16.7 97.9 19.6C97.8 22.4 95.5 24.7 92.7 24.8Z" fill="#069E2D"/>
<path d="M92.3 31.5H86.8C84.1 31.5 81.9 33.7 81.9 36.4C81.9 38.5 83.4 40.4 85.5 40.8L82.5 44.3C82 44.8 82.1 45.7 82.6 46.1C82.6 46.1 82.6 46.1 82.7 46.2C83 46.4 83.3 46.5 83.6 46.5C84 46.5 84.4 46.3 84.6 46C84.6 46 88.8 40.9 89.6 40C89.8 39.7 89.8 39.3 89.7 39C89.5 38.7 89.1 38.6 88.8 38.6H86.8C85.5 38.6 84.5 37.5 84.6 36.3C84.7 35.1 85.7 34 86.9 34.1H91V45.1C91 45.8 91.6 46.4 92.3 46.4C93 46.4 93.6 45.8 93.6 45.1V32.6C93.4 32 92.9 31.6 92.3 31.5Z" fill="#FF6700"/>
<path d="M144.7 32.8V45.2C144.7 45.9 144.1 46.5 143.4 46.5C142.7 46.5 142.1 45.9 142.1 45.2V35.8L137.9 40C137.4 40.4 136.8 40.4 136.3 40L132.1 35.8V45.2C132.1 45.9 131.5 46.5 130.8 46.5C130.1 46.5 129.5 45.9 129.5 45.2V32.8C129.5 32.1 130.1 31.5 130.8 31.5C131.2 31.5 131.6 31.6 131.9 31.9L137.1 37.3L142.4 31.9C142.7 31.6 143.1 31.5 143.5 31.5C144.2 31.5 144.7 32.1 144.7 32.8Z" fill="#FF6700"/>
<path d="M110.3 43.8H109.1L104.1 32.3C103.9 31.8 103.4 31.4 102.4 31.4C101.7 31.4 101 31.7 100.7 32.3L95.7 43.8L95.1 45.1C94.9 45.4 94.9 45.8 95 46.1C95.2 46.5 95.8 46.5 95.8 46.5H110.2C110.9 46.5 111.5 45.9 111.5 45.2C111.8 44.5 111.2 43.8 110.3 43.8ZM98.8 43.8L102.5 35.4L106.2 43.8H98.8Z" fill="#FF6700"/>
<path d="M119.3 31C114.8 30.9 111.2 34.5 111.1 39C111 43.5 114.6 47.1 119.1 47.2C123.6 47.3 127.2 43.7 127.3 39.2V39.1C127.4 34.7 123.9 31.1 119.6 31C119.5 31 119.4 31 119.3 31ZM119.3 44.2C116.4 44.2 114.1 41.9 114.1 39C114.1 36.2 116.4 33.8 119.2 33.8H119.3C122.2 33.8 124.5 36.1 124.5 39C124.5 41.8 122.2 44.2 119.3 44.2C119.4 44.2 119.3 44.2 119.3 44.2Z" fill="#FF6700"/>
<path d="M74.8 31.5H70.3C69.6 31.5 69 32.1 69 32.8V45.2C69 45.9 69.6 46.5 70.3 46.5C71 46.5 71.6 45.9 71.6 45.2V42.5H74.8C77.8 42.5 80.3 40 80.3 37C80.3 34 77.8 31.5 74.8 31.5ZM74.8 39.8H71.6V34.1H74.8C76.3 34.1 77.6 35.4 77.6 36.9C77.7 38.4 76.5 39.7 75 39.8C74.9 39.8 74.9 39.8 74.8 39.8Z" fill="#FF6700"/>
<path d="M135.7 11.6C131.2 11.5 127.6 15.1 127.5 19.6C127.4 24.1 131 27.7 135.5 27.8C140 27.9 143.6 24.3 143.7 19.8V19.7C143.8 15.3 140.2 11.7 135.8 11.6H135.7ZM135.7 24.8C132.8 24.8 130.5 22.5 130.5 19.6C130.5 16.8 132.8 14.4 135.6 14.4H135.7C138.6 14.4 140.9 16.7 140.9 19.6C140.8 22.4 138.5 24.7 135.7 24.8Z" fill="#069E2D"/>
<path d="M103.8 27.2C104.5 27.2 105.1 26.6 105.1 25.9V20L111.9 26.9C112.1 27.2 112.5 27.3 112.8 27.3C113.1 27.3 113.5 27.2 113.7 26.9C114.2 26.4 114.2 25.5 113.7 25L108.4 19.7L113.5 14.5C114 14 114 13.1 113.5 12.6C113 12.1 112.1 12.1 111.6 12.6L105 19.5V13.6C105 12.9 104.4 12.3 103.7 12.3C103 12.3 102.4 12.9 102.4 13.6V26C102.5 26.7 103.1 27.2 103.8 27.2Z" fill="#069E2D"/>
<path d="M116.6 14.8H120.1V25.8C120.1 26.5 120.7 27.1 121.4 27.1C122.1 27.1 122.7 26.5 122.7 25.8V14.8H126.2C126.9 14.8 127.5 14.2 127.5 13.5C127.5 12.8 126.9 12.2 126.2 12.2H116.6C115.9 12.2 115.3 12.8 115.3 13.5C115.3 14.2 115.8 14.8 116.6 14.8C116.5 14.8 116.6 14.8 116.6 14.8Z" fill="#069E2D"/>
<path d="M151.3 12.1H146.8C146.1 12.1 145.5 12.7 145.5 13.4V25.8C145.5 26.5 146.1 27.1 146.8 27.1C147.5 27.1 148.1 26.5 148.1 25.8V23.1H151.3C154.3 23.1 156.8 20.6 156.8 17.6C156.8 14.6 154.3 12.1 151.3 12.1ZM151.3 20.5H148.1V14.8H151.3C152.9 14.8 154.1 16.1 154.1 17.7C154.1 19.2 152.9 20.5 151.3 20.5Z" fill="#069E2D"/>
<path d="M50.8 8V26.6C50.9 40.7 39.5 52.2 25.3 52.3H6.80005V59.4H28.8C45 58.9 57.9 45.5 57.8 29.3V8H50.8Z" fill="#069E2D"/>
<path d="M50.8 0.799988V26.5C50.9 40.6 39.5 52.1 25.3 52.2H-0.200031V26.5C-0.300031 12.4 11.1 0.899988 25.3 0.799988H50.8Z" fill="#FF6700"/>
<path d="M39.5 22.3H29.7V12.1H20.8V22.3H10.9V30.7H20.8V40.8H29.7V30.7H39.5V22.3Z" fill="white"/>
</g>
<defs>
<clipPath id="clip0">
<rect width="157" height="59.6" fill="white"/>
</clipPath>
</defs>
</svg>
